<?xml version="1.0"?>
<svg xmlns="http://www.w3.org/2000/svg" xmlns:xlink="http://www.w3.org/1999/xlink" xmlns:svgjs="http://svgjs.com/svgjs" version="1.1" width="512" height="512" x="0" y="0" viewBox="0 0 128 128" style="enable-background:new 0 0 512 512" xml:space="preserve"><g><g xmlns="http://www.w3.org/2000/svg"><path d="m84.913 98.463a1.748 1.748 0 0 0 2.423-.5 41.3 41.3 0 0 0 3.957-7.8 1.75 1.75 0 1 0 -3.266-1.263 37.848 37.848 0 0 1 -3.619 7.14 1.748 1.748 0 0 0 .505 2.423z" fill="#5cc0ac" data-original="#000000" style=""/><path d="m69.883 28.76c1.081-4.383 3.484-10.706 8.742-14.742a1.749 1.749 0 0 0 .21-2.586l-5.76-6.132a1.75 1.75 0 0 0 -2.34-.191c-6.455 4.947-10.1 12.673-11.143 23.57-23.678 1.026-37.15 10.456-37.15 26.236a1.751 1.751 0 0 0 1.75 1.75h2.06c.042 19.827.862 48.464 28.371 60.272 3.016 1.288 4.239 2.161 8.183 5.84a1.749 1.749 0 0 0 2.388 0c3.944-3.679 5.167-4.552 8.186-5.841 27.506-11.807 28.326-40.444 28.368-60.271h2.06a1.751 1.751 0 0 0 1.75-1.75c0-15.446-12.916-24.806-35.675-26.155zm1.765-19.86 3.37 3.585c-5.311 4.858-7.667 11.628-8.7 16.13q-1.148-.026-2.322-.027c-.3 0-.591.008-.888.011.921-8.936 3.725-15.41 8.54-19.699zm.352 104.821a24.239 24.239 0 0 0 -8 5.4 24.23 24.23 0 0 0 -8-5.4c-25.411-10.907-26.207-38.147-26.248-57.054h68.5c-.045 18.907-.84 46.146-26.252 57.054zm-45.991-60.554c1.467-18.986 26.881-21.084 37.991-21.084s36.524 2.1 37.991 21.084z" fill="#5cc0ac" data-original="#000000" style=""/></g></g></svg>
