<svg id="Capa_1" enable-background="new 0 0 512 512" fill="#46a58d" height="512" viewBox="0 0 512 512" width="512" xmlns="http://www.w3.org/2000/svg"><g><path d="m208.72 256c0 27.57 22.43 50 50 50s50-22.43 50-50-22.43-50-50-50-50 22.43-50 50zm50-30c16.542 0 30 13.458 30 30s-13.458 30-30 30-30-13.458-30-30 13.458-30 30-30z"/><path d="m95.149 265.325c-29.544 28.579-73.487 80.095-52.938 115.677 6.62 11.462 18.698 18.805 35.923 21.9.419.934.882 1.85 1.399 2.741 8.263 14.301 26.638 19.257 40.974 10.979 6.059-3.495 10.626-8.973 13.055-15.378 14.864-2.587 30.94-6.631 47.989-12.067 1.165 5.59 2.394 11.073 3.693 16.361 1.313 5.346 6.716 8.647 12.097 7.326 5.364-1.318 8.643-6.734 7.325-12.097-1.432-5.829-2.781-11.903-4.042-18.117 13.753-5.017 27.857-10.803 42.086-17.264 24.152 12.173 48.04 22.449 71.194 30.634-6.412 27.43-26.925 95.98-55.184 95.98-6.689 0-13.697-4.333-20.828-12.879-3.538-4.24-9.844-4.811-14.084-1.272-4.241 3.538-4.81 9.844-1.272 14.085 11.11 13.315 23.284 20.066 36.184 20.066 41.766 0 64.508-68.796 74.242-109.668 41.696 12.882 115.024 28.392 136.77-9.296 6.61-11.464 6.926-25.596.991-42.063.597-.827 1.168-1.677 1.686-2.572 8.271-14.325 3.345-32.708-10.984-40.982-6.071-3.501-13.107-4.709-19.855-3.603-10.565-12.608-23.558-25.688-38.778-39.035 36.022-30.756 97.504-92.881 73.887-133.78-22.175-38.41-98.535-21.45-140.763-8.04-9.103-43.771-32.288-122.961-77.196-122.961-13.232 0-25.63 6.789-36.928 20.162-1.017-.104-2.041-.162-3.072-.162-16.542 0-30 13.458-30 30 0 7.015 2.473 13.717 6.808 19.007-6.733 18.576-12.523 41.474-16.974 67.16-42.964-14.119-120.74-32.195-143.294 6.873-16.133 27.94 5.669 72.205 59.889 122.285zm-35.619 105.674c-10.02-17.351 9.776-53.152 50.64-92.372 18.508 15.756 39.234 31.167 61.776 45.927 1.473 15.409 3.44 30.429 5.872 44.818-15.623 5.076-30.34 8.922-43.954 11.491-.623-1.798-1.399-3.552-2.367-5.231-8.28-14.311-26.663-19.236-40.983-10.975-6.762 3.901-11.588 10.248-13.741 17.467-7.033-1.887-13.836-5.226-17.243-11.125zm135.158-207.866c8.633 3.301 17.403 6.913 26.26 10.812-9.498 5.343-18.959 10.921-29.365 17.425.854-9.583 1.89-19.014 3.105-28.237zm125.788-13.715c3.077 18.882 5.295 38.682 6.658 59.146-20.138-12.888-40.803-24.808-61.571-35.483 18.579-9.095 36.957-17.017 54.913-23.663zm-2.402 226.859c-17.086-6.14-34.598-13.466-52.335-21.887 19.753-9.887 39.626-20.961 60.04-33.7-1.79 19.384-4.367 37.986-7.705 55.587zm30.591-128.899c7.893 5.701 15.479 11.45 22.708 17.215-7.417 5.789-15.138 11.52-23.119 17.163.299-8.593.465-17.202.465-25.756.001-2.877-.021-5.752-.054-8.622zm-20.306-14.112c.236 7.486.361 15.105.361 22.734 0 13.23-.391 26.591-1.121 39.802-26.346 17.225-55.057 33.451-84.437 47.333-17.342-9.036-34.318-18.766-52.154-30.096-1.512-18.69-2.288-37.849-2.288-57.039 0-13.11.383-26.462 1.099-39.762 16.987-11.127 35.103-21.913 53.664-31.844 29.028 14.149 57.987 30.892 84.876 48.872zm-134.839 104.867c9.267 5.612 16.873 10.008 26.576 15.341-7.79 3.3-15.507 6.371-23.115 9.203-1.302-8-2.458-16.193-3.461-24.544zm-23.528-38.98c-16.136-11.108-31.182-22.532-44.959-34.143 13.386-11.726 28.16-23.333 44.144-34.688-.293 8.607-.457 17.193-.457 25.678 0 14.457.433 28.898 1.272 43.153zm-59.482 100.147c-4.774 2.757-10.901 1.113-13.667-3.674-2.74-4.727-1.108-10.891 3.664-13.644 4.784-2.758 10.916-1.108 13.671 3.654 2.811 4.874 1.035 10.951-3.668 13.664zm344.588-60.914c-2.837 4.898-8.984 6.383-13.672 3.672-4.791-2.764-6.421-8.874-3.661-13.649 2.802-4.844 8.957-6.384 13.664-3.668 4.775 2.757 6.418 8.884 3.669 13.645zm-31.323-24.624c-1.236 1.429-2.359 2.968-3.324 4.636-8.307 14.378-3.368 32.708 10.975 40.98 6.336 3.662 14.115 5.031 21.988 3.161 1.885 7.036 2.399 14.602-1.004 20.504-8.842 15.321-47.775 20.746-115.206-.338 4.617-23.678 7.892-49.094 9.755-75.758 14.113-9.5 27.583-19.317 40.167-29.291 14.337 12.396 26.613 24.491 36.649 36.106zm35.585-172.762c16.505 28.582-46.668 89.302-72.082 110.71-12.181-9.869-25.374-19.697-39.343-29.321-1.265-27.751-4.046-54.472-8.301-79.626 70.157-22.754 110.603-17.564 119.726-1.763zm-142.514-11.549c-24.052 8.725-48.818 19.654-73.8 32.572-15.346-7.196-30.548-13.616-45.344-19.137 4.044-24.212 9.273-45.821 15.346-63.444 1.855.356 3.749.558 5.672.558 16.542 0 30-13.458 30-30 0-7.802-3.083-15.152-8.255-20.627 5.152-5.148 11.446-9.373 18.255-9.373 18.222 0 42.883 33.933 58.126 109.451zm-98.126-89.451c5.657 0 10 4.637 10 10 0 5.514-4.486 10-10 10-5.474 0-10-4.46-10-10 0-5.514 4.486-10 10-10zm-166.139 113.04c9.351-16.2 50.853-21.13 122.858 3.158-2.187 15.779-3.857 32.177-4.991 48.91-22.327 15.094-42.643 30.727-60.555 46.587-21.781-20.001-72.213-72.851-57.312-98.655z"/><circle cx="208.72" cy="446" r="10"/></g></svg>