<?xml version="1.0"?>
<svg xmlns="http://www.w3.org/2000/svg" xmlns:xlink="http://www.w3.org/1999/xlink" xmlns:svgjs="http://svgjs.com/svgjs" version="1.1" width="512" height="512" x="0" y="0" viewBox="0 0 511.335 511.335" style="enable-background:new 0 0 512 512" xml:space="preserve" class=""><g transform="matrix(6.123233995736766e-17,1,-1,6.123233995736766e-17,511.3351352214813,0.0002810955047323205)"><g xmlns="http://www.w3.org/2000/svg"><path d="m249.176 3.656-203.511 499.491c-2.15 5.277 3.719 10.215 8.551 7.195l198.3-123.961c1.268-.793 2.877-.796 4.148-.009l200.478 124.057c4.843 2.997 10.687-1.962 8.52-7.228l-205.618-499.564c-2-4.859-8.885-4.846-10.868.019z" fill="#5cc0ac" data-original="#7fb9ff" style="" class=""/><path d="m260.044 3.637c-.989-2.403-3.173-3.61-5.368-3.632v385.785c.69.014 1.378.205 1.988.582l200.478 124.057c4.843 2.997 10.687-1.962 8.52-7.228z" fill="#46a58d" data-original="#0080ff" style="" class=""/></g></g></svg>
