<svg xmlns="http://www.w3.org/2000/svg" viewBox="0 0 372.57 377.86"><defs><style>.cls-1{fill:#d45446;stroke:#d24a44;stroke-miterlimit:10;}</style></defs><g id="Layer_2" data-name="Layer 2"><g id="drawing"><path class="cls-1" d="M189.28,242.64c-.21.78-.44,1.55-.7,2.31-2,6-6.08,11.68-11.93,14.2a23.16,23.16,0,0,1-11.87,1.38c-18.23-2.13-31.62-17.67-42.26-32.62A517.06,517.06,0,0,1,69.8,134.6c-1-2.37-2.86-5.2-5.39-4.68-1.87.39-2.82,2.45-3.4,4.27-6.25,19.66-2.43,41.12,3.82,60.78s14.91,38.68,18.52,59c.67,3.75,1.15,7.65.14,11.32-1.68,6.08-7.28,10.44-13.3,12.3-5.49,1.69-13.81,2.68-19.29.74S40.37,272.58,36,269a84.55,84.55,0,0,1-21.41-26.87c-8-15.6-11.79-33.11-13.33-50.6-1.92-21.73-.49-44,6.32-64.71s19.21-39.92,36.69-53c3-2.23,6.14-4.31,8.64-7.09a16.46,16.46,0,0,1,2.59-2.62c2.5-1.74,5.92-1.3,8.77-.21,8.34,3.19,14,10.9,18.61,18.58,16,26.81,25.52,59.1,50.28,78.13,1.67,1.29,3.83,2.55,5.77,1.71s2.43-3,2.78-4.9c5.29-28.93-5.12-60.24-26.66-80.25-2.14-2-4.44-4-5.72-6.59s-1.23-6.18,1-8.1a10,10,0,0,1,4-1.76c5-1.4,10.27-2.81,15.24-1.38,2.91.83,5.48,2.58,8.36,3.52,5,1.63,10.63.72,15.54,2.62A24,24,0,0,1,161,70.78c12.64,12,20.51,28.3,24.79,45.17s5.2,34.4,5.64,51.8q.73,29.16-.26,58.34C191,231.65,190.7,237.28,189.28,242.64Z"/><path class="cls-1" d="M238.94,138.3c1.58,1,3.74-1.46,4.73-2.37,1.82-1.68,3.53-3.48,5.18-5.34,3.25-3.68,6.25-7.59,9.43-11.33,11.07-13,25.6-24.56,42.62-26.16a23.43,23.43,0,0,1,11.57,1.39c3.6,1.56,6.68,4.68,7.46,8.52s-.87,7.91-3.41,10.93-5.91,5.21-9.21,7.37c-19.1,12.49-38.47,26.17-49.85,45.95-14.72,25.59-13.67,56.81-16.73,86.17-.41,3.94-1.17,8.34-4.38,10.65-2.4,1.73-5.55,1.83-8.5,1.86-9.42.11-20.39-.52-25.81-8.23-3.19-4.53-3.54-10.44-3.47-16,.38-31.76,10.57-63.44,5.76-94.84-2.67-17.43-9.87-33.84-18.19-49.39-1.86-3.47-3.82-7-4.09-11s1.7-8.32,5.45-9.49a10.63,10.63,0,0,1,6.13.34c5.32,1.61,10,4.91,14.18,8.55a92.68,92.68,0,0,1,23.28,30.79c3,6.33,4.83,12.84,6.72,19.56a4,4,0,0,0,.83,1.77A2.21,2.21,0,0,0,238.94,138.3Z"/><path class="cls-1" d="M265,242.84c-.45-6.85.27-13.8.9-20.63a138.73,138.73,0,0,1,6-30.39c4.69-14.37,11.33-28.26,20.79-40.13a93,93,0,0,1,20.45-19.05c5.62-3.81,12.92-9.52,19.63-11,5.71-1.27,14.28-1.58,20-.14,11.26,2.85,12.17,20.33,3.82,26.72-8.2,6.28-19.71,5.2-28.32,10.64a46.34,46.34,0,0,0-13.8,13.91c-5.54,8.47-7.47,17.35-9.45,27.07-2.11,10.36-2,25.37,9.36,30.51,5.22,2.35,9.28-.62,12.58-4.49,4.49-5.27,8.32-10.89,12.55-16.29,3.5-4.47,8.28-8.89,13.6-11,4.43-1.77,9.78-.07,13.17,3.06,8.61,8,6.13,21.18,2.32,30.87-4.53,11.54-12.07,22.85-22.3,30a89,89,0,0,1-27.95,13.26,42.76,42.76,0,0,1-29.5-2.08c-5.09-2.22-10.43-4.65-14.83-8.09-4.07-3.19-6-8.1-7.37-13A47.25,47.25,0,0,1,265,242.84Z"/><path class="cls-1" d="M155.35,282.34a67.93,67.93,0,0,0-12.59,2c-3.24.72-6.36,1.92-9.64,2.15,0,.12.1.23.14.35a16.12,16.12,0,0,1,.06,8.74c-1.15,5-4.4,11-9.53,12.84,1.62,2.55,3.4,5,5.15,7.47,3.48,4.87,6.92,10.56,11.28,14.71,2.75-1.93,5-6.73,7.34-9.48,5.12-6,11.14-10.76,13.68-18.48C163.9,294.55,168.76,281.89,155.35,282.34Z"/><path class="cls-1" d="M163.55,282l-10.76-17.81-23.44,17.39a10.68,10.68,0,0,1,3.34,3.9l31.44,5.14.09-4.09Z"/><path class="cls-1" d="M129.24,281.54,130,256l-2.8,24.44A10.86,10.86,0,0,1,129.24,281.54Z"/><path class="cls-1" d="M133.25,295.85c-1.14,4.67-4.09,10.16-8.7,12.26l16.14,23.57Z"/><path class="cls-1" d="M126.61,280.16l.44.19,3.15-4.63-4.49,4.18C126,280,126.31,280.06,126.61,280.16Z"/><path class="cls-1" d="M161.9,276.63c-11.55-29.57-54.07-25-72.28-5a26.22,26.22,0,0,1-15.47,8.71c-6,1-13,3-16.33,8.52s-2.12,11.43.63,16.78c2.37,4.6,4.69,11.85,10,13.86,7.19,2.71,15.39-6.79,20.9-10.08L100,303.07c2.82-1.68,6.21-2.75,8.86-4.75-.25-.86-.45-1.74-.62-2.62-.33-1.72-.59-3.51.17-5.05,0-.07,0-.13,0-.19a11.5,11.5,0,0,1,1.7-4c3.39-5,10.54-8.37,16.51-6.25a11.34,11.34,0,0,1,1.38.61l0,0c.13-.3,1.51-4.28,1.67-4.25,5.64.93,11.23,2.09,16.86,3.11,4.37.79,8.36,2.67,12.91,2.33a3.73,3.73,0,0,0,2.12-.64C162.88,280.24,162.51,278.18,161.9,276.63Z"/><path class="cls-1" d="M128.82,281.24a10.71,10.71,0,0,1,4.06,4.67l.47-.11h.73s-2.63-3.73-3.79-5.33Z"/><path class="cls-1" d="M131.65,279.38l.63-.34.08.35.51-.27,0-.44,1.41-.76-1.23-.75,0-.32-.77-.12-.75-.46.08.35-.87-.14-2.55.63-.51,3.54c.26.13.51.28.76.42l1.58-.85.18.25,1.74-.9Z"/><path class="cls-1" d="M135.58,323.5c-2.82-5.11-5.76-10.14-8.63-15.22-.2-.36-.39-.79-.58-1.23a10.28,10.28,0,0,1-3.9,1.75,10.58,10.58,0,0,1-9.59-3.19,11.08,11.08,0,0,1-.8-.89q-3.51,13.8-7,27.62-1.83,7.19-3.65,14.39c-.85,3.35-4.62,9.47-2.3,12.78a8.67,8.67,0,0,0,2.24,2c11.78,8.21,23.72,20,39.13,13.72C164.17,365.6,143.15,337.17,135.58,323.5Z"/><path class="cls-1" d="M200.25,338.59c-1.35-.72-3.06.64-4.21,2.88-1.31,2.56-1.8,5.45-2.62,8.18-2.32,7.61-3.7,16.74-9.82,22.41-3.79,3.51-8.94,3.88-13.8,2.89a16.66,16.66,0,0,1-2.1-.44c-2.78-1-6.55-5.69-7.88-8.26s-.73-7-.38-9.86c2.61-21.71,9.42-42.95,9.88-65.07a58.16,58.16,0,0,0-.07-9.05c-.34-2.46-1.29-4.82-1.4-7.36a6.11,6.11,0,0,1,3.63-5.78c2.77-1.35,5.74-2.82,8.61-4,7-2.83,19.34-.34,21.9,7.63,2.46,7.65,3.34,15.8,4.73,23.68.82,4.64,3.83,2.25,5.66-.29,6.44-8.91,12.51-20.22,24.2-23,3.15-.75,6.22.19,9.08,1.48,3.65,1.65,7.31,4.41,9,8.13,1.65,3.55.69,6.89-1.39,10-3.91,5.82-8.6,10.54-10.78,17.3-3.14,9.69-4.68,20.14-6.32,30.17-.56,3.44-1.22,6.89-1.68,10.35-.43,3.25-.21,6.59-.93,9.8a23.3,23.3,0,0,1-3.5,8.16c-3.37,4.86-8.79,7.59-14.71,6.37-6.75-1.39-11.53-6.52-13.39-13-1.13-3.93-.75-8-.47-12,.19-2.76,1-5.9.28-8.72A3.88,3.88,0,0,0,200.25,338.59Z"/><path class="cls-1" d="M324.93,310.65c-2.81,2-5.59,3.55-8.5,5.34-6,3.72-13.17,6.12-18.56,10.95a17.09,17.09,0,0,0-5.52,8.87c-1.48,6.46-2.17,13.31-5.25,19.29-3.53,6.83-12.36,13.24-19.53,15.78-3.78,1.33-10.57,4.59-14.58,3.54-1.86-.49-5.09-1-5.09-3.7-1.12-3.31-2.23-7.3-.66-10.64s3.82-5.9,5.52-9c3.95-7.17,7.3-14.69,11.9-21.48,1.38-2,3.78-5.36,2.14-7.87s-6-1.6-8.42-2.74a12.77,12.77,0,0,1-6.36-6c-1.29-2.78-.84-5.9.2-8.68,2.2-5.93,6.79-10.93,11.19-15.34,2.35-2.35,4-.8,6.73-.14,2.48.61,5.26.36,7.83.26,5.3-.2,10.68.2,15.93-.53a74.08,74.08,0,0,0,15.44-4.29c2.58-1,5.14-2,7.72-2.91,2.11-.76,7-2.35,9.22-1.83,7.59,1.82,9.17,10.05,7.89,16.73a23.6,23.6,0,0,1-4.42,10.07A22.08,22.08,0,0,1,324.93,310.65Z"/><path class="cls-1" d="M304.5.5c-4-.1-8.4,1.77-12.16,3.11a101.78,101.78,0,0,0-11.95,5.16,96.67,96.67,0,0,0-34.8,29.51A129.85,129.85,0,0,0,238,50.07c-3,5.12-6,10.59-7.38,16.4-.48,2-1.06,5.08.45,6.82,1,1.17,2.77,1.4,3.86,2.48.92.92,1.22,2.29,2,3.37,1.7,2.46,5,2.85,7.73,3s6.31.71,9,0l-.43.1a59.45,59.45,0,0,0,6.3-1.62c7.13-2.58,14.37-5.54,20.75-9.81a67.79,67.79,0,0,0,17.05-16.65c4.91-6.88,7.63-15,9.69-23.11,1.61-6.35,3.24-12.74,3.76-19.29.26-3.18.63-7.82-2.28-10A6.88,6.88,0,0,0,304.5.5Z"/><path class="cls-1" d="M63.63,315.48c4.2,5.39,6.57,11.86,10,17.68,3.83,6.41,7.93,12.77,13.18,18.13,3.07,3.14,6.15,7.52,10.41,9.13,4.88,1.83,5.82-4.15,6-7.61.11-2-.15-4-.1-6a87.63,87.63,0,0,1,1.49-12.7"/><path class="cls-1" d="M150,261.62l-5.48-2.94c-10.9-5.84-25.07-2.85-36.2.59-5.86,1.81-11.18,5.37-15.74,9.41-3.43,3-7.14,7-11.28,9.29-7,3.84-16.22,3.86-22.26,9.46S54.66,301.2,58,307.83c8.27,16.56,18.48,32.34,31.19,45.85,11.43,12.14,27.22,26.95,45.42,23,6.15-1.32,11.27-2.51,14.54-8.46a19.14,19.14,0,0,0,2.19-5.8c1.19-8.13-2.86-16.33-6.67-23.25-2.53-4.6-4-8.17-.62-12.77,2.67-3.64,4.77-7.73,7.52-11.29,4.94-6.39,9.39-13.59,11.47-21.47C166.06,282.05,160.85,267.43,150,261.62Zm-16.67,33.95c-1.11,4.81-4,9.91-8.5,12.31-5.83,3.11-11.57-.33-14.45-5.67-3-5.6-3.12-13.41,1.64-18.14,3.69-3.67,9.55-5.7,14.6-3.91a10.79,10.79,0,0,1,6.65,6.67A16.12,16.12,0,0,1,133.32,295.57Z"/></g></g></svg>