<svg xmlns="http://www.w3.org/2000/svg" viewBox="0 0 1611.67 695.52"><defs><style>.cls-1{fill:#73ed40;stroke:#73ed40;}.cls-1,.cls-2,.cls-3,.cls-4{stroke-miterlimit:10;}.cls-2{fill:#fff;stroke:#fff;}.cls-3{fill:#ef2929;stroke:#ef2929;}.cls-4{fill:#afa3a3;stroke:#afa3a3;}</style></defs><g id="Layer_2" data-name="Layer 2"><g id="background"><path d="M41.69,25.8c-4.34,8.56-6.22,18.57-7.72,28C25.67,105.67-.58,156,0,208.81c.28,25.16,6,49.52,11.27,73.92,5.37,25,7.28,51.42,9.74,76.88Q27,421.17,27.3,483.1c.1,18.94-.79,36.55-3.9,55.2-2.84,17-5.46,35.49,2.7,51.47,7,13.71,20.83,19.69,32.67,28.41,13.54,10,26.54,21.18,42.43,27.29,30.3,11.64,67.57,4.72,99.3,4.41,49.18-.48,98.35,1.6,147.54,1.18,24.94-.21,49.9-1.06,74.76-3.21,48.62-4.19,97.45-1.76,146.17-1.43,51.28.35,102.36-4.93,153.66-4.17,89.75,1.31,178,16.51,267.19,24.29,59.85,5.23,120.21,1.33,179.91,8.67,42,5.16,79.21,19.55,122.56,19.6,48.18.06,96.41,1.81,144.57-.41,48.59-2.24,97.25,3.51,131.84-36.27,37.16-42.74,44.34-100.46,42.77-155-.78-27.42-3.87-54.7-6.71-82-3.22-30.9,2.09-59.25,1.82-90.08-.3-34.8.25-69.6-.39-104.42-.45-24.92-5.67-49.6-5.06-74.56.51-21.08,9.3-39.8-.64-59.82-5-10-10.3-19.14-11.66-30.23-1.45-11.9,3.24-22.55-5.52-33.1-4.27-5.15-10.56-8.18-16.84-10.48-62.83-23.1-139.31-8.31-204.45-5.61-50,2.07-100.06,3.54-150.1,5.29-48.78,1.7-98.65-5-147.67-6.23-103.54-2.59-207.13.18-310.68-2.41-80.22-2-161.43-7.85-241.29,3-73,9.92-146.41,1.25-219.36-4.62C252.54,4.6,212,4.51,171.49,5.49c-27,.65-53.74-6.36-80.78-5.4C76.74.59,61.82,4.43,51,13.69A38.42,38.42,0,0,0,41.69,25.8Z"/></g><g id="masks"><path class="cls-1" d="M137.74,548.13a39.45,39.45,0,0,1-.7-4.3q-1.26-10.38-1.71-20.82c-1.13-26.21,2.7-52.16,4.66-78.24l0-.42q3.64-48.78,9.06-97.41c1.07-9.68,5-16.62,15.65-16.63,3.75,0,7.51.05,11.26.15,2.55.07,5.22.2,7.43,1.48,5,2.87,4,15.53,5,20.76a189.12,189.12,0,0,0,12.55,38.88q1,2.3,2,4.58c1.58,3.48,3.66-.58,4.55-2.22a59.8,59.8,0,0,0,2.56-5.58c1.47-3.6,2.75-7.27,4-10.95.16-.49.32-1,.49-1.46l10.18-29.85c1.73-5.1,2.68-11.68,7.9-13.79,4.72-1.91,11-.61,15.92,0,4.1.48,8.94,1.57,11.34,5.12,2.79,4.12,2.51,10,2.9,14.76q1.11,13.25,2,26.51,1.79,26.5,3,53c1.65,35.39,2.8,70.79,4.18,106.19.34,8.8,3.11,17.29-7.56,19.48-3.83.78-8.75.51-11.7-2.37-2.7-2.64-2.43-5.94-2.51-9.43-.26-12.46-.86-24.91-1.48-37.36-.6-12-.55-24.26-1.78-36.24-.87-8.5-1-17-1.41-25.57q-.67-16-2.18-31.94c-1-10.08-1.87-20.11-4.33-29.95-.45-1.56-1.43-5.77-3.14-6.53-2.41-1.06-2.55,4-2.68,5.45-1.68,17.59-10.65,35.31-16.53,51.83-2.16,6.06-3,9.92-10,10.69-3.64.4-9.36,2.25-11.82-1.57a13.13,13.13,0,0,1-1.5-4.43c-3.62-16.75-11.36-31.9-16.5-48.09a85.28,85.28,0,0,1-3.31-13.73c-.16-1.19-.26-3.42-1.26-4.27s-2.47-.67-2.49.9c-.06,4-.48,8.49-.48,9.86q0,11.29-.06,22.61-.15,22.61-.74,45.21-.69,26.34-1.95,52.64-.63,13.16-1.4,26.31c-.36,6.1.63,12.84-2,18.61-2.73,6-13.31,6.26-18.67,4.92C140.16,553.83,138.56,551.45,137.74,548.13Z"/><path class="cls-1" d="M315.29,439.94c1.39-1.1,3.42-1.32,6.47-.88,3.78.54,5.4,1.37,6.38,5.2,2.27,8.89,2.74,18.57,4.1,27.64,3.13,20.79,5.58,42.25,10.68,62.66,1.12,4.77,2,11.69,4.69,15.83,2.44,3.74,7.48,4.05,11.46,3.66,6.41-.64,9.34-1.63,8.39-8.79-.58-4.46-2.38-8.61-3.26-13-4.55-22.84-7.58-45.93-10.76-69-3.12-22.71-7.35-45-11.43-67.53q-3.45-19-6.31-38.1-1.47-9.72-2.77-19.47c-.7-5.21-.67-10.12-5.67-13.06-3.89-2.06-9.87-2.54-12.37,1.86a15.68,15.68,0,0,0-1.51,5.23c-4.18,16.73-5.28,34.44-8.62,51.37-3.56,18-6.73,36.1-9.9,54.17q-6.69,38.28-12.57,76.7c-1.6,10.46-3.86,21.08-4.42,31.65-.38,7.3,4.47,7.65,10.71,7.74,3.81.06,7.74-.2,10-3.67s2.45-7.65,2.77-11.49c.57-6.91.41-13.85,1.12-20.75,1.44-14,3.69-28.26,5.57-42.34.92-6.94,1.82-13.91,2.37-20.89C310.81,449.48,310.78,443.51,315.29,439.94Z"/><path class="cls-1" d="M435.66,377.78A12,12,0,0,1,434,374c-.68-2.48-.87-5.07-1.36-7.6a33.39,33.39,0,0,0-9-17.15c-7.49-7.57-15.2-1.82-19.69,5.94-6.22,10.77-6.19,24.46-1.64,36,5.55,14.1,17.79,22.37,27.47,33.3,15.52,17.52,34.45,41.16,38.24,65,3,18.87-2.06,43.57-17.23,56.52-15,12.77-36.56,8.46-50.91-3-8.92-7.12-14.74-17.47-18.27-28.18-2.31-7-4.68-14.45-5.06-21.9-.14-2.64-.43-7.46,1.85-9.47,6.11-5.36,20-2.63,22.17,5.24,3.29,12,4.91,24.55,10.09,36,3.78,8.33,13.77,10.28,21.49,6,5.92-3.25,9.88-9.24,12.48-15.47,2.46-5.9,3.92-12.33,3.28-18.69-.74-7.37-4.21-14.16-7.81-20.63-12.26-22-29.78-38.77-45.38-58.16-5.18-6.45-10.66-14.29-12.57-22.48-2.28-9.75-1.75-21.58-.3-31.4,1.82-12.41,6.75-28.1,18.17-34.94,6-3.57,13.19-4.24,20.14-4.17a35.29,35.29,0,0,1,11,1.47c9.18,3.11,13.84,13.47,16.69,21.95,2.73,8.11,7.24,18.51,4.39,27.12-1.26,3.83-4.24,5.08-8.07,5.41S437.46,380.29,435.66,377.78Z"/><path class="cls-1" d="M485.83,330.23c-3.29,4.76-2.51,10-2.43,15.6.11,7.27.42,14.54.73,21.81,2.29,53.69,6.48,108,2.65,161.7-.42,6.18-3.35,19.35.49,24.71,3.18,4.44,11.25,2.38,15.4.68,5.33-2.18,6.28-6.61,6.2-11.81-.14-8.46-.89-17-1.33-25.42-.66-10.59-1.08-21.2-1.62-31.79-.37-7.17-4.17-22.26,1.54-28,7.35-7.44,21.25,2.58,26.57,8.15,9.42,9.84,12.84,24.85,13.79,38a207.12,207.12,0,0,1-.84,39.05c-1,9,1.82,14.78,11.54,11.68,5.9-1.89,7.9-5.21,8.41-11.36a213.9,213.9,0,0,0-4.41-61.6c-2.41-10.75-6.91-21.39-14.22-29.74-8.32-9.51-19.71-13.59-31.86-16-9.34-1.84-5.85-4.86-2.05-11.13,7.15-11.81,14.47-24.26,19.91-37,6-13.93,11.18-28.39,19.94-40.89,2.69-3.83,13.74-17.07,4.9-19.68-6.54-1.94-16.82-4.19-20.94,2.56-4.53,7.43-6.79,17.6-9.92,25.73q-9.81,25.49-19.71,50.92c-2,5.11-2.92,1-3.28-2.07-.66-5.69-.05-11.56.09-17.25.41-16.94.35-33.89.56-50.83,0-2.44,0-5.07-1.42-7.06-2.92-4.08-10.95-3.83-15.09-2A8.51,8.51,0,0,0,485.83,330.23Z"/><path class="cls-1" d="M634.41,378.47c2.62,5.18,10.7,6.11,15.42,3.71,6.93-3.51,6.93-10.52,6.25-17.19-2.11-20.78-14.35-41-38.1-39-10.44.86-19.31,6.53-25.52,14.81-12,16-14.34,33.46-7.64,52.41,6.48,18.31,18.7,34.85,29.72,50.65A234.24,234.24,0,0,1,634.28,478c6.21,13.16,15.37,30.36,3.49,43.33a21.21,21.21,0,0,1-19.54,6.45,19.48,19.48,0,0,1-14.72-14.12c-1.7-7.16,2.5-17.51-3.39-23.33-2.59-2.56-6.53-3.11-10.17-3.21-12.36-.33-12,12.69-10.67,22.09,1.4,10.35,5,20.66,11.83,28.54,8.48,9.72,20.91,12.75,33.39,13.32,7.15.33,14.51-.81,20.71-4.36,19.13-10.95,25.61-36.68,18.93-56.52-3.9-11.59-10.77-21.89-16.92-32.46-10.47-18-22.82-34.81-33.34-52.82C609,396.47,603,388,602,378c-.88-9.05,1.23-24.8,9.37-30.51,5.28-3.7,14.39-1.88,18.57,2.72C636.18,357,630.73,371.2,634.41,378.47Z"/><path class="cls-2" d="M199.55,130.61c2.93-.17,5.86-2.52,7-6.43,3.95-13.86-3.25-29.8-13.14-39.47-12-11.79-30.31-13.24-43.26-2-11,9.52-15.13,25.34-13.58,39.42,1.68,15.23,9.79,28.26,18.84,40.22,10.88,14.37,20.42,29.55,29.82,44.91,11,17.88,16.94,42.07,5.48,61.15-3.86,6.43-10.79,12.3-18.12,10.7-7.13-1.57-14.55-9.66-17.49-16-6.22-13.53,1.55-29.31-4-42.92-2.55-6.25-10.39-9.61-15.74-4.29-3.68,3.67-4.52,9.26-5,14.45-1.26,15.13-.48,31.13,7.14,44.26,7.27,12.55,20.38,21,34.63,23.16,9.51,1.47,20.61-.35,28.06-6.8,4.59-4,7.51-9.52,9.75-15.16,3.83-9.65,6.46-20.05,6.57-30.47s-3.61-19.52-7.82-28.91c-12.86-28.68-34.06-52-48.87-79.52-3.57-6.61-6.31-14-6.67-21.55-.29-6-1-14.46,3.47-19.22C164.18,88,181.77,88,188.2,97.38c5.9,8.59,1.44,19,4.78,28.13C194.33,129.21,196.94,130.77,199.55,130.61Z"/><path class="cls-2" d="M250.09,187.61c-2.29,3.75-2.5,8.57-2.39,13.95q.57,28.24,1.16,56.49c.16,8.21.67,16.37,1.24,24.45.42,6-.53,13.7-7.95,14.45C232,298,230.87,285.52,231,278.4c.26-14.53-.11-29-.26-43.53-.36-34.22-.69-68.7,1.2-102.88q.39-12.66.85-25.31c.21-5.64-1.28-15.28,1.33-20.5,1.42-3.63,5.22-5.77,9-6.87,9.93-2.93,20.46-5.63,30.81-6.36,5.89-.42,12,.22,17.3,2.79,18.53,8.91,20.7,36.77,15.49,54C299.39,154,280.35,173,257.31,182A14,14,0,0,0,250.09,187.61Z"/><path class="cls-2" d="M349.76,202.91a10.48,10.48,0,0,0-.82.93c-2.35,3-2.71,7-2.8,10.84-.34,15.08,2.27,30,2.84,45.05.38,10.07-.92,20-1.91,30a12.8,12.8,0,0,1-1.24,5.1c-2.62,4.6-7.54,3.59-10.57.09-4-4.6-3.68-12.41-3.59-18.06Q332.94,194,334,111.18c.12-9.3,1.74-18.79,10.37-23.91C355,81,370,74.52,382.56,75.54c15.23,1.24,28.51,13.18,30.7,28.44,2.14,14.92-7,30.62-15.13,42.59a84.21,84.21,0,0,1-17.08,17.83c-3.27,2.64-6.92,5-10.38,7.43a64.16,64.16,0,0,0-5.15,4c-1.42,1.26-3.47,2.82-4.26,4.59a1.46,1.46,0,0,0-.14.71,1.52,1.52,0,0,0,1,1.14,20.33,20.33,0,0,0,4.29,1c1.55.29,3.11.55,4.65.9,3.3.74,6.58,1.51,9.82,2.49a47.83,47.83,0,0,1,15.2,7.23c7.63,5.75,11.33,15.07,13.31,24.14a241.37,241.37,0,0,1,4.92,74.56,10,10,0,0,1-.87,3.79c-3.7,7-13.23-3.12-14.56-7-1.11-3.25-1-6.79-.67-10.21,1.56-18.46.33-34.13-3.3-52.23-2.06-10.28-5.51-19.78-15.38-24.9C372,198.13,356.66,195.86,349.76,202.91Z"/><path class="cls-2" d="M431.51,76.81a4.9,4.9,0,0,0-.91.53c-2.51,1.84-2.6,5.5-2.4,8.61,1,14.4,3.62,28.66,4.09,43.08.48,14.6-.19,29.2-.11,43.81.12,25,1.41,50.65-.73,75.53-1.09,13.76-1.81,27.76,2.62,41.06,1,3.13,2.52,6.38,5.37,8.05,6.54,3.83,22.3.23,29.8,0q18-.58,36.12-.71c5.49-.05,17.73-1.2,15.71-9.64-.71-3-3.28-5.25-6.13-6.42-16.72-6.84-38.06-2.37-55.58-2.48-12-.08-9.79-9.3-9.11-18.1q.83-10.76,1.2-21.55.48-13.65.2-27.33c-.12-5.5-2.58-15.79,1.57-20.45a6,6,0,0,1,3.77-1.51c8.36-1.14,16.42.21,24.74,0,1.72,0,3.58-.14,4.93-1.22,1.71-1.36,2-3.88,1.59-6-2.74-13.34-20.85-9-30.35-9.24-5.14-.15-5.73-2.84-5.86-7.43q-1-32.79-1.92-65.57c-.58-19.51,31.89-3.48,42.05-5.25,7.31-1.27,18.92-13.51,7.39-17.92-2.63-1-5.55-.86-8.37-.74-18.5.81-37-.81-55.48.19A11.6,11.6,0,0,0,431.51,76.81Z"/><path class="cls-2" d="M539.93,298.11l.06,0c10.81-5.11,12-22,13.56-32.24a645.17,645.17,0,0,0,7-65.77c.62-11.53,10.41-11.78,20.1-10.7,6.43.72,7.74,4.93,8.41,10.81q4,35,8,70c.86,7.56,1.76,15.22,4.63,22.26a10,10,0,0,0,3.57,5c3.55,2.18,8.47-.4,10.26-4.16s1.36-8.15.88-12.29c-6.66-58.17-13.34-116.38-23.06-174.13-1.23-7.24-2.51-14.52-5.05-21.41-1.81-4.91-5.26-10.26-10.49-10.37-6.52-.13-9.91,7.56-11.53,13.87-8.63,33.79-15.47,68-21.45,102.36-3,17.42-5.84,34.89-8.55,52.36q-2,12.75-3.9,25.52c-1.07,7.07-4,16-2.86,23.18a7.82,7.82,0,0,0,4.07,6.07A7.69,7.69,0,0,0,539.93,298.11Z"/><path class="cls-2" d="M631.38,103.72c-3.39,9.7-2.58,21-2,31q2.4,40.44,2.7,81,.15,20.25-.22,40.51c-.19,10.2-3.51,25.88,1,35.43,6.92,14.58,27.27-2.85,35.11-7.55,24-14.38,35-41.63,42.68-67.14,11.54-38.2,20.12-87.61,1-124.93-3.31-6.46-7.85-12.66-14.37-15.83-9.86-4.79-21.55-1.64-32,1.58C654.14,81.2,642.4,86.17,635.37,96A30.53,30.53,0,0,0,631.38,103.72Z"/><path class="cls-2" d="M980.45,217.37a15.08,15.08,0,0,1,9.45-3.26,8.35,8.35,0,0,1,5.86,1.84c1.73,1.53,2.47,3.89,3,6.14,2.72,12.12-.91,24.45,1.59,36.56,2.25,10.92,9.88,16.38,19.44,20.81a14.51,14.51,0,0,0,4.13,1.4c3.15.44,6.29-1.09,8.69-3.18,9.67-8.41,13.38-20.78,12.54-33.31-1.65-24.61-16.91-45.71-30.4-65.33S983.24,138,981.78,113.5c-.46-7.57.81-15.36,4.51-22,7.36-13.12,26.42-21.14,41-16.52,10.78,3.42,19.49,14.94,24.23,24.7a41.8,41.8,0,0,1,4.25,23.15c-.91,7.42-7,14-14.62,9-5.63-3.67-5.19-11.86-5.75-17.75a33.52,33.52,0,0,0-5.58-15.45,19.12,19.12,0,0,0-8.33-7.53c-6.38-2.7-11.32.55-15.81,4.89-2.86,2.78-5.67,5.83-6.93,9.61-2.26,6.78,1,13.4,3.36,19.65A108.86,108.86,0,0,0,1012.47,146c5.61,8.58,7.34,8.74,15.57,19.35a235.5,235.5,0,0,1,16.52,24.54c5.29,8.79,9.21,15.32,13.21,25,3.26,7.9,6,14.81,7.08,24.55a76.41,76.41,0,0,1-.47,18.87c-1.57,12.53-4.44,24.91-14.36,33.59-26.06,22.81-63.92,0-71.53-29.34-2.61-10-1.22-22.36-1.61-32.68-.11-3-.21-6.14,1-8.93A9.67,9.67,0,0,1,980.45,217.37Z"/><path class="cls-2" d="M1113.19,99.4a8.45,8.45,0,0,1,2,2c3.58,5,1.67,15.64,1.56,21.4-.33,18.06-2.06,36.06-2.15,54.12q-.19,43-.84,85.93c-.14,9.89-4.66,50.09,16.23,39.64,11.1-7,5.94-22.29,5.27-32.68-1.75-27-.64-54.13-.18-81.19.27-15.49.08-31.53-.35-47.23q-.33-12.23-.81-24.43c-.21-5.48-1.86-13.06,1.16-18.15,4.18-7,16.32-3.14,22.82-3,6.33.13,18.5.46,19.91-7.77,2.85-16.72-20.44-10.92-30.15-11-16.68-.06-33.44-.62-50.1,0-6.41.25-21.88-5.07-23.83,4.16-1,4.51,1.45,12.66,6,14.69,6.76,3,15.14,1.09,22.25,1C1105.5,96.83,1110.06,97.16,1113.19,99.4Z"/><path class="cls-2" d="M1224.73,71.49c-15.57.7-27.13,19.79-32.15,32.63-5.27,13.47-5.63,27-6.23,41.26-.61,14.6-2.94,29.08-3.54,43.69-.84,20.46.52,41.19,6.09,61,4.39,15.58,10.75,33.58,22.78,45.22,21.88,21.19,46.74-3.86,53.49-25.57,4.62-14.86,9.56-30.64,10.42-46.25,1.11-20.38-3.29-40-6.38-59.9-4.09-26.46-8.38-67.25-29.94-86.23C1234.32,73,1229.42,71.28,1224.73,71.49Z"/><path class="cls-2" d="M1294.62,93.63a32.64,32.64,0,0,0-2.12,5.75c-1.93,7.26-1.58,14.92-1,22.41,1,13,1,26.09,1.11,39.16.3,40,1.24,81-1.55,120.85-.49,6.94,1.79,22.94,12.1,21,12.2-2.31,7.73-29,7.59-36.88q-.39-21.55-.77-43.09c-.16-8.65-5-22,.58-29.69,4-5.6,11.57-5.52,17.26-8.32,27.47-13.52,48.46-49.08,43.26-79.56C1365.33,71.54,1309.11,63.57,1294.62,93.63Z"/><path class="cls-2" d="M1390.2,139c2.6,4.06,1.11,11.41,1,15.92,0,17.05-.4,34.1-.49,51.15q-.08,16.91-.16,33.81c0,10.53.94,21.05.49,31.6,0,.64-.06,1.29-.1,1.94-.09,1.53.23,3.42-2.07,3.13-1.6-.19-3.15-2.94-4-4.13-2.36-3.46-1.53-6.86-1.42-10.87.41-16.43.7-32.83.75-49.27q.06-18.18-.13-36.35c-.08-7.58-.64-15.15-.63-22.74,0-4.23-.71-10,2.46-13.4C1388.09,137.55,1389.4,137.74,1390.2,139Z"/><path class="cls-2" d="M1393.6,137.94a4.79,4.79,0,0,0,.15,1.6c.1.84.16,1.68.19,2.52.21,5.2-.46,10.42-.69,15.61-.49,10.67-.36,21.38,0,32.05s.54,21.29.61,31.94q.06,9.93-.07,19.84-.09,7.45-.31,14.92c-.11,3.88-.26,7.76-.39,11.64-.07,2-.5,4-.1,5.92.45,2.3,2.85,3.84,4.9,2,2.32-2.06,1.52-6.42,1.51-9.15,0-8.4-.47-16.79-.47-25.19,0-1.3-.05-2.61-.08-3.91-.21-10.83-.39-21.65-.46-32.48s0-21.45.11-32.18c0-3.26,0-6.54.15-9.79.31-5.65.66-11.3,1-17,.1-1.65.2-3.29.28-4.94.06-1.35.34-2.87-.7-3.95a2.22,2.22,0,0,0-1.16-.56c-1.11-.23-3.15-.2-4.11.52A.89.89,0,0,0,1393.6,137.94Z"/><path class="cls-2" d="M1411.4,138.12a18.61,18.61,0,0,0,.19,2.83c.06,1.84.06,3.68,0,5.51-.09,2.91-.31,5.82-.28,8.72.11,10.63.45,21.25.48,31.88l0,12.29c0,10.73-.08,21.46.22,32.19.15,5.37.16,10.74.11,16.12s-.34,10.65-.2,16c.1,3.68,0,7.37-.07,11.06a3.19,3.19,0,0,0,1.33,2.7,1.94,1.94,0,0,0,2.74-1.23,5.17,5.17,0,0,0,.17-1.62c0-4.46-.2-8.94-.38-13.39-.22-5.64,0-5.79-.21-11.68-.15-5.23-.51-10.44-.49-15.67,0-10.65-.24-21.3-.32-31.94s-.29-21.44-.24-32.16q0-8.1,0-16.21c0-2.71,0-5.41,0-8.11,0-1.35,0-2.71,0-4.06,0-.54,0-1.08,0-1.62s-.35-1-.35-1.41a3.18,3.18,0,0,0-1.85-1.3C1411.65,136.93,1411.45,137.44,1411.4,138.12Z"/><path class="cls-2" d="M1417,155.71q.13,6.85.18,13.7c.08,10.85-.05,21.69-.19,32.54v.3c-.29,22.2.52,44.4.89,66.6,0,1.79.06,3.58.08,5.37a4,4,0,0,0,.25,1.6c.51,1.15,1.69.82,2.69.72,1.42-.14,2.12-.21,2.54-.55,1.17-1,.41-3.47.32-4.75-.16-2.2-.28-4.4-.38-6.61-.47-11.12-.24-22.26-.17-33.38s-.28-22.14-.23-33.21c.08-18.69.55-37.38.31-56.07,0-2.05-.83-5.61-3.62-5.43-2.06.13-2.69,3-2.93,4.62-.63,4.29.15,9.13.24,13.47C1416.94,155,1417,155.35,1417,155.71Z"/><path class="cls-2" d="M1427.4,137.79c-1.29,2.38-.29,6.84-.23,9.46l.24,10.77c.36,16.57.66,33.13.81,49.7q.15,16.82.13,33.62,0,8.41,0,16.81,0,4.22,0,8.41c0,2.58-.62,5.88-.08,8.39.34,1.55,1.41,1.6,2.45.3a5.12,5.12,0,0,0,.5-2.55c.41-21.84.44-43.91.25-65.83-.19-22.14-.31-44.31-1-66.45,0-1.15.39-4.24-1.85-3.57A1.88,1.88,0,0,0,1427.4,137.79Z"/><path class="cls-2" d="M1450.91,138.29c-1.66,4.15-.79,9.62-.8,14,0,32.58.18,65.16.2,97.74,0,6.43-.1,12.87,0,19.3,0,1.27.33,9.79,3,6.81,1.19-1.31.86-4,.86-5.61,0-32.39-.24-64.79-.33-97.17,0-4.09,0-8.18,0-12.27q0-7.67,0-15.32c0-2,.81-6,0-7.76S1451.62,136.51,1450.91,138.29Z"/><path class="cls-2" d="M1435.12,138.5a5.71,5.71,0,0,0-.81,1.86,17.06,17.06,0,0,0-.33,4.4c.2,14.85.36,29.69.34,44.53,0,20.9,0,31.35,0,34.23.17,10.49.55,21.19.47,31.76,0,5.14-.31,10.24-.55,15.36-.08,1.66-.08,3.7.87,5.14s4.42,2.23,6.12,1.5,1.39-3.54,1.38-5c-.2-22-.6-43.87-.64-65.82,0-10.4,0-20.8,0-31.2.07-9.15.31-18.29.56-27.44.08-3,.75-8.4-2.13-10.28A3.6,3.6,0,0,0,1435.12,138.5Z"/><path class="cls-2" d="M1459.39,136.83c-1,.36-1.26,1.61-1.29,2.8-.46,15.74-.36,31.49-.16,47.24.06,5.24.16,10.48.16,15.72,0,1.67,0,3.33,0,5,.3,20.46.89,40.92.57,61.37,0,1.94-.52,3.94-.16,5.88.77,4,4.34,2.24,4.71-.78.55-4.45.07-9.3.08-13.78,0-16-.07-31.91-.08-47.86,0-15.74.52-31.5.23-47.24-.1-5.7.13-11.4.45-17.09.21-3.77,1.84-10.32-3.41-11.32A2,2,0,0,0,1459.39,136.83Z"/><path class="cls-2" d="M1485.13,137.72a6.62,6.62,0,0,1,.91,3.93q.2,39.42-.1,78.84c-.11,14.38-.26,28.76-.24,43.15,0,2.9-.53,6.52.18,9.38a5.57,5.57,0,0,1,0,2.51,2.49,2.49,0,0,1-.94,1.69,2.54,2.54,0,0,1-2.58-.44A4.34,4.34,0,0,1,1481,274a11.34,11.34,0,0,1-.25-3.33c.64-5.92-.29-128.66-.88-131.27-.41-1.83,1.9-2.91,3.43-2.71A2.73,2.73,0,0,1,1485.13,137.72Z"/><path class="cls-2" d="M1488.47,137.79a3.77,3.77,0,0,0-.91,2.82c.88,18.34.58,36.73.75,55.1.07,6.7,0,11.44-.12,15.25-.35,18-.24,35.92-.19,53.89,0,1.09,0,2.17,0,3.26,0,1.81,0,3.61-.07,5.41,0,1.14-.49,3,.65,3.83,2.61,1.83,3.14-2.21,3.2-4,.28-8.83-.55-17.72-.55-26.55,0-9.12.19-18.23.39-27.34.29-12.39.6-24.78.51-37.17q0-3.57-.06-7.15-.09-10.68-.24-21.36c0-2.38,1.28-17.78-2.61-16.5A2.05,2.05,0,0,0,1488.47,137.79Z"/><path class="cls-2" d="M1497.16,139.46a8.66,8.66,0,0,1,.13-.91c.36-1.78,2.16-2.28,3.83-2.23,2.19.06,2.45,2.67,2.6,4.33.27,2.92.41,5.85.54,8.77.37,8.34.21,16.67.21,25q-.1,26.87-.57,53.72c-.17,10.91-.37,21.82-.39,32.73,0,3.83.06,7.67.25,11.49a7.78,7.78,0,0,1-.13,2.31c-.54,2-3.71,2.69-5.32,1.42-1.2-.95-.82-3.13-.8-4.45,0-2.14.15-4.29.18-6.44.06-3.66-.09-7.31-.09-11q0-27.09,0-54.19t-.25-54.17C1497.31,143.9,1497,141.51,1497.16,139.46Z"/><path class="cls-2" d="M1507.37,139.63a3.86,3.86,0,0,1,.68-1.74,3.07,3.07,0,0,1,4.1-.58c.35.3.71.81.88,2.92.46,5.82-.33,12-.42,17.86-.11,7.82-.06,15.64-.06,23.46q0,15.78,0,31.58c0,17.83,0,35.87.35,53.76a59.32,59.32,0,0,1-.1,7.89c-.36,3.07-3.25,3-4.83.74-1.24-1.78-.81-3.82-.7-5.85.4-7.49.26-15,.26-22.53q0-26.94,0-53.87,0-19.78-.06-39.59v-8.5A32.75,32.75,0,0,1,1507.37,139.63Z"/><path class="cls-2" d="M1516.74,140.48c-1.46.88-1,4.27-.94,5.7.16,14.06.37,28.11.3,42.17-.06,10.67-.34,19-.44,22.08-.54,17-.28,34.06,0,51.09,0,2.35,0,4.7,0,7.05,0,1.35-1.15,6.69.89,7a1.92,1.92,0,0,0,1.16-.27c4.47-2.28,3-9.25,2.76-13.25-1.11-17.87-.21-35.77.24-53.65s1-36.05,1.28-54.06c.06-3.8.43-8.13-1.52-11.56C1519.91,141.71,1518.15,139.63,1516.74,140.48Z"/></g><g id="virus"><path class="cls-3" d="M981.47,335.35a2.34,2.34,0,0,0-.51.44,4.3,4.3,0,0,0-.61,3.11C984,399,996.18,458,1011.77,516c3.23,12,6.39,24.09,10.87,35.75.92,2.4,2.18,5.07,4.65,5.79,4.06,1.2,7.17-3.6,8.55-7.6,4.27-12.45,6.81-25.42,9.22-38.36,10.13-54.25,18.32-108.84,26.5-163.42.4-2.66.77-5.52-.46-7.92-2.39-4.67-8.94-4.73-14.16-4.11a8.18,8.18,0,0,0-4.27,1.33c-2.38,1.9-1.93,5.54-1.48,8.55,1.34,9.06.56,18.3-.41,27.41-1.91,18.06-4.56,36-7.24,54q-6.4,42.82-13.15,85.58c-.25,1.56-.65,3.35-2.07,4.06-6,3-6.68-16.51-7.14-19.59-6.45-42.72-15.15-85.33-19.77-128.29q-1-9-1.46-18c-.37-6.72,1.31-15-7.18-17.16C989.26,333.16,984.59,333.31,981.47,335.35Z"/><path class="cls-3" d="M1093.46,334.38a4.78,4.78,0,0,0-.87,3.6l.35,5.46a5.12,5.12,0,0,0,.28,1.66c2.16,5.23,13.13,1.14,17,1,8.45-.2,15.14,2.91,15,12.12-.84,46.5-4.13,93-3.58,139.52.07,5.65.41,11.31.41,17,.19,5.13.63,10.13,1.17,15.23.7,6.63-2.3,8.75-8.46,8.54q-11-.39-22-1.43c-8.9-.84-10.51,1-11.17,2s-.51,3.34-.22,8,.64,5.17.92,5.54c2,2.64,6.86,2,9.47,1.76,7.31-.76,14.75.53,22.06-.29,17.66-2,37.56-.15,47.44.75,6.5.59,16.28,1.73,18.4-2.43.49-1,.38-2.88.14-6.74-.3-5-.44-7.51-1.44-8.61-2.91-3.22-10.05-1-13.53-.18-5.64,1.32-11,2.79-16.9,2.7-11.48-.16-9.23-15.86-9.55-23.58-.83-19.87-.24-39.78.16-59.67q.72-35.46,1-70.92.06-10.83.09-21.65a66.05,66.05,0,0,0-.33-9.14c-.55-4-.59-6.77,4-7.44,5.64-.83,11.13,1.58,16.48,2.95a8.64,8.64,0,0,0,4.3.29c4-1.08,3-8.42,3.62-11.57a6.65,6.65,0,0,0,.14-3c-1-3.88-9.27-2.59-12-2.32-17.75,1.73-35.67,2.22-53.42.28C1099.1,333.44,1095.19,332.41,1093.46,334.38Z"/><path class="cls-3" d="M1192.55,362.6a78.37,78.37,0,0,0-2.71,18c-.48,12.17,1.22,24.3,2.46,36.41a582.08,582.08,0,0,1,1.83,86.59c-.44,9.38-1.06,18.78-.65,28.17.34,7.91.16,19,8.11,23.49,2.89,1.62,6.94,1.53,9.12-1,1.84-2.11,1.88-5.19,1.82-8q-.85-38.51-3.87-76.92c-.4-5.2.26-12,5.33-13.28,4.11-1,10,1.38,13.86,2.73a34.93,34.93,0,0,1,13.59,8.12c5.31,5.4,8.07,12.83,9.55,20.25,3.71,18.6.27,38,3.3,56.71.51,3.21,1.28,6.53,3.34,9.05a9,9,0,0,0,7.06,3.45,6.84,6.84,0,0,0,6.24-4.41c1.38-4.13.31-8.83.32-13.1,0-5.22,0-10.44-.1-15.66-.3-18.06-.62-35.35-6.37-52.6-3-7.53-7.34-15.8-13.37-21.38-6.29-5.83-14.67-5.95-22.76-6.46a4.1,4.1,0,0,1-3.33-1.74c-2.37-4,7.87-8.75,10.11-10.72a87.26,87.26,0,0,0,25-37.2c4.24-12.71,5.4-26.9.59-39.41s-16.38-22.85-29.76-23.74c-12.14-.82-24,6.21-31,16.13A52.85,52.85,0,0,0,1192.55,362.6Z"/><path class="cls-3" d="M1287.6,332.14c-2,2.05-.8,6.16-.66,7.28,2,15.42,1.15,30.75,1,46.23-.14,14.51,1.51,29.34,2.54,43.85,2,27.69,4.54,55.79,11.34,82.79,4.2,16.71,14.84,41,35.28,41,9.87,0,18.72-7.54,24.22-15.15,13.4-18.54,14-43.13,16.19-65,2.08-21.16,2.57-42.44,2.59-63.69,0-18.81.06-37.46,1.22-56.22.41-6.58,1.07-19.92-6.06-23.49a12.81,12.81,0,0,0-6.86-.94c-2.75.24-8-.08-9.84,2.51-1.43,2,.17,6.29.39,8.59.34,3.69.51,7.4.68,11.1,1.82,38.78,4.51,77.95,1.32,116.71q-.43,5.32-1,10.62c-.3,2.67-1.05,5.53-1.05,8.21a184.25,184.25,0,0,1-6,27.68c-2,6.49-4.48,17.74-11.7,20.52-8.73,3.37-13.71-9.9-15.94-16-9.61-26.22-11.48-54.43-15.06-81.89-2.16-16.59-3.84-33.27-4.43-50-.57-16.45,1.66-32.53,2-48.79,0-1,.24-4-1.63-5.75-1-.92-2.21-1.13-4.64-1.5a32.65,32.65,0,0,0-8.36,0C1290,331.12,1288.43,331.31,1287.6,332.14Z"/><path class="cls-3" d="M1471.54,374.84c7.57-8.14,2.87-29.54-10-40-14.15-11.49-37-8.76-50.48,3-15.58,13.57-13.83,34.9-13.49,39,1.25,15.3,9.24,25.81,18.49,38,12.13,16,16.73,14.67,30,32,7.85,10.26,14.89,20.21,17.78,33a68.57,68.57,0,0,1-.73,33.14c-2.16,7.8-3.68,18.57-11.56,22.79-17.36,9.32-30.83-9.9-33-24.93-1.23-8.36-.52-16.86,0-25.29.17-2.52.3-5.18-.81-7.45-2.29-4.7-8.7-5.61-13.8-4.49-3.44.75-7,2.33-8.67,5.41-1.17,2.12-1.29,4.64-1.33,7.06-.22,12.65,1.22,25.49,6,37.2s13.13,22.24,24.36,28.05,25.45,6.36,36.35,0c9.8-5.74,16.47-16.72,20.77-26.93,5-11.89,9.19-26.07,8.62-39.07a55,55,0,0,0-4.49-20.8c-2.93-6.52-6.28-10-14.45-18.79-6.38-6.86-16.53-17.84-21-22.88-11-12.32-21.88-24.32-27.38-40.28-2.37-6.85-3.41-14.32-1.82-21.4,1.94-8.62,10.09-20.35,20.26-18.78,4,.63,7.38,3.57,9.72,6.93,3.68,5.29,5.84,12.46,4.37,18.85a18.84,18.84,0,0,0-.8,5.94C1455.2,382.34,1467.78,378.88,1471.54,374.84Z"/><path class="cls-4" d="M835.57,11.73c-.64,1.25,1.76,3.2,2.82,5,3,4.92-2.38,11.43-7.39,23.69-5.68,13.92-13,27.1-18.29,41.2-5.48,14.71-14.48,40.26-.82,53.25,1.68,1.6,3.43,3.32,4.07,5.56,1.5,5.23-6.4,6.45-.92,11s-.23,10.31-.19,15.93c0,5.16,3,10.24,4.44,15.09,5,16.6,10.41,31.54,10.34,49.07-.07,17-3.28,33.82-7,50.34-5.54,24.43-16.57,50.58-6.37,75.35,7.36,17.84,19.5,34.66,30.2,50.63a60.44,60.44,0,0,1,6.92,12.45c10.68,28.73-5,53.8-20.6,76.59-14.28,20.89-25.64,43-11.39,67.25,9.11,15.51,20.5,30.17,26.12,47.47a59.78,59.78,0,0,1,3.16,17.37c.11,6,.44,12-.52,18a8.42,8.42,0,0,0-.18,2c.14,1.77,1.44,2.46,3,2.6,1.83.17,3.67.29,5.5.37a17.17,17.17,0,0,0,4.75,0c2.13-.54.92-3.19.59-4.59-.71-3.07-1.74-6.05-2.69-9.05-2.9-9.28-1.59-10.27-4.13-24.43a113,113,0,0,0-4.92-19.16c-9.86-26.72-29.38-52.65-14.79-81,3.11-6,7.09-11.23,14.92-21.37,12.24-15.84,23.65-33.9,23.18-54.69-.5-21.45-15.47-39.06-26.72-56.13-13.92-21.11-21.67-43.54-14.29-68.8,7.75-26.56,19.31-49.86,19.19-78.18a188.63,188.63,0,0,0-9.89-58.34c-2.76-8.33-6.35-16-7.62-24.73s-1-17.86-2.79-26.64c-3.13-15.44-.34-31.47,4-46.63,2.39-8.43,8.28-38.46,15.64-55.64.44-1,4.55-8.14,2.44-10.3a4,4,0,0,0-2.77-.84c-4.56-.14-7.4-.58-12.92-.39C837.14,11,835.9,11.08,835.57,11.73Z"/></g></g></svg>